<svg width="200" height="60" viewBox="0 0 195 56" fill="none" xmlns="http://www.w3.org/2000/svg">
<path d="M58.41 44.597V41.267H55.08V39.755H58.41V36.443H59.922V39.755H63.243V41.267H59.922V44.597H58.41ZM69.7904 33.779C70.6244 33.779 71.3774 33.98 72.0494 34.382C72.7214 34.778 73.2554 35.324 73.6514 36.02C74.0474 36.716 74.2454 37.511 74.2454 38.405V42.527C74.2454 43.475 74.0474 44.306 73.6514 45.02C73.2614 45.728 72.7154 46.28 72.0134 46.676C71.3174 47.072 70.5134 47.27 69.6014 47.27C68.9174 47.27 68.2754 47.141 67.6754 46.883C67.0754 46.625 66.5534 46.241 66.1094 45.731L67.4954 44.444C67.7414 44.762 68.0504 45.017 68.4224 45.209C68.7944 45.401 69.1874 45.497 69.6014 45.497C70.1354 45.497 70.6064 45.368 71.0144 45.11C71.4284 44.852 71.7494 44.516 71.9774 44.102C72.2054 43.688 72.3194 43.244 72.3194 42.77V40.394L72.6974 40.808C72.3254 41.294 71.8634 41.678 71.3114 41.96C70.7594 42.242 70.1684 42.383 69.5384 42.383C68.7284 42.383 68.0084 42.197 67.3784 41.825C66.7484 41.453 66.2504 40.946 65.8844 40.304C65.5184 39.662 65.3354 38.936 65.3354 38.126C65.3354 37.316 65.5394 36.584 65.9474 35.93C66.3554 35.276 66.8954 34.754 67.5674 34.364C68.2394 33.974 68.9804 33.779 69.7904 33.779ZM69.7904 35.597C69.3224 35.597 68.8934 35.711 68.5034 35.939C68.1194 36.161 67.8134 36.464 67.5854 36.848C67.3574 37.232 67.2434 37.658 67.2434 38.126C67.2434 38.594 67.3574 39.023 67.5854 39.413C67.8134 39.797 68.1194 40.103 68.5034 40.331C68.8874 40.559 69.3134 40.673 69.7814 40.673C70.2494 40.673 70.6754 40.559 71.0594 40.331C71.4434 40.103 71.7494 39.797 71.9774 39.413C72.2054 39.023 72.3194 38.594 72.3194 38.126C72.3194 37.664 72.2054 37.241 71.9774 36.857C71.7554 36.473 71.4524 36.167 71.0684 35.939C70.6844 35.711 70.2584 35.597 69.7904 35.597ZM77.3276 47L81.8816 35.831H76.1126V34.04H83.9066V35.831L79.3616 47H77.3276ZM88.3335 47V36.11L85.8945 37.595V35.498L88.3335 34.04H90.2505V47H88.3335ZM101.115 47.27C100.449 47.27 99.8277 47.135 99.2517 46.865C98.6817 46.589 98.1927 46.211 97.7847 45.731C97.3767 45.245 97.0857 44.687 96.9117 44.057L98.7207 43.571C98.8227 43.955 98.9967 44.288 99.2427 44.57C99.4947 44.852 99.7887 45.071 100.125 45.227C100.461 45.377 100.809 45.452 101.169 45.452C101.643 45.452 102.072 45.338 102.456 45.11C102.846 44.882 103.152 44.576 103.374 44.192C103.602 43.808 103.716 43.385 103.716 42.923C103.716 42.449 103.599 42.02 103.365 41.636C103.137 41.252 102.828 40.949 102.438 40.727C102.054 40.499 101.631 40.385 101.169 40.385C100.641 40.385 100.194 40.49 99.8277 40.7C99.4617 40.91 99.1767 41.153 98.9727 41.429L97.3347 40.853L97.7307 34.04H104.724V35.813H98.6937L99.4587 35.102L99.1437 40.205L98.7747 39.728C99.1167 39.386 99.5247 39.125 99.9987 38.945C100.473 38.765 100.944 38.675 101.412 38.675C102.216 38.675 102.933 38.861 103.563 39.233C104.199 39.605 104.7 40.112 105.066 40.754C105.432 41.39 105.615 42.113 105.615 42.923C105.615 43.727 105.408 44.459 104.994 45.119C104.58 45.773 104.031 46.295 103.347 46.685C102.663 47.075 101.919 47.27 101.115 47.27ZM112.221 47.27C111.381 47.27 110.625 47.072 109.953 46.676C109.281 46.274 108.747 45.725 108.351 45.029C107.961 44.333 107.766 43.541 107.766 42.653V38.522C107.766 37.58 107.961 36.752 108.351 36.038C108.747 35.324 109.293 34.769 109.989 34.373C110.691 33.977 111.498 33.779 112.41 33.779C113.094 33.779 113.736 33.908 114.336 34.166C114.936 34.424 115.455 34.808 115.893 35.318L114.516 36.605C114.27 36.287 113.961 36.035 113.589 35.849C113.223 35.657 112.83 35.561 112.41 35.561C111.87 35.561 111.396 35.69 110.988 35.948C110.58 36.2 110.259 36.533 110.025 36.947C109.797 37.361 109.683 37.805 109.683 38.279V40.655L109.314 40.241C109.686 39.755 110.148 39.371 110.7 39.089C111.252 38.807 111.843 38.666 112.473 38.666C113.277 38.666 113.994 38.855 114.624 39.233C115.26 39.605 115.758 40.112 116.118 40.754C116.484 41.396 116.667 42.119 116.667 42.923C116.667 43.733 116.463 44.468 116.055 45.128C115.653 45.782 115.113 46.304 114.435 46.694C113.763 47.078 113.025 47.27 112.221 47.27ZM112.221 45.461C112.689 45.461 113.115 45.347 113.499 45.119C113.883 44.891 114.189 44.585 114.417 44.201C114.645 43.817 114.759 43.391 114.759 42.923C114.759 42.455 114.645 42.029 114.417 41.645C114.195 41.261 113.892 40.955 113.508 40.727C113.124 40.499 112.698 40.385 112.23 40.385C111.762 40.385 111.333 40.499 110.943 40.727C110.559 40.955 110.253 41.261 110.025 41.645C109.797 42.029 109.683 42.455 109.683 42.923C109.683 43.385 109.797 43.808 110.025 44.192C110.253 44.576 110.559 44.885 110.943 45.119C111.327 45.347 111.753 45.461 112.221 45.461ZM122.189 46.991L122.198 45.317L127.841 40.259C128.297 39.857 128.606 39.473 128.768 39.107C128.936 38.741 129.02 38.375 129.02 38.009C129.02 37.547 128.918 37.133 128.714 36.767C128.51 36.395 128.228 36.101 127.868 35.885C127.508 35.669 127.094 35.561 126.626 35.561C126.146 35.561 125.717 35.675 125.339 35.903C124.967 36.125 124.676 36.422 124.466 36.794C124.256 37.166 124.154 37.568 124.16 38H122.234C122.234 37.16 122.423 36.425 122.801 35.795C123.185 35.159 123.71 34.664 124.376 34.31C125.042 33.95 125.804 33.77 126.662 33.77C127.478 33.77 128.21 33.956 128.858 34.328C129.506 34.694 130.016 35.198 130.388 35.84C130.766 36.482 130.955 37.214 130.955 38.036C130.955 38.63 130.877 39.134 130.721 39.548C130.565 39.962 130.331 40.346 130.019 40.7C129.707 41.054 129.317 41.438 128.849 41.852L124.493 45.74L124.286 45.2H130.955V46.991H122.189ZM138.252 47V44.741H132.402V42.959L136.614 34.04H138.765L134.553 42.959H138.252V39.449H140.16V42.959H141.447V44.741H140.16V47H138.252ZM144.283 47L148.837 35.831H143.068V34.04H150.862V35.831L146.317 47H144.283ZM157.308 47L161.862 35.831H156.093V34.04H163.887V35.831L159.342 47H157.308ZM170.51 47.27C169.67 47.27 168.914 47.072 168.242 46.676C167.57 46.274 167.036 45.725 166.64 45.029C166.25 44.333 166.055 43.541 166.055 42.653V38.522C166.055 37.58 166.25 36.752 166.64 36.038C167.036 35.324 167.582 34.769 168.278 34.373C168.98 33.977 169.787 33.779 170.699 33.779C171.383 33.779 172.025 33.908 172.625 34.166C173.225 34.424 173.744 34.808 174.182 35.318L172.805 36.605C172.559 36.287 172.25 36.035 171.878 35.849C171.512 35.657 171.119 35.561 170.699 35.561C170.159 35.561 169.685 35.69 169.277 35.948C168.869 36.2 168.548 36.533 168.314 36.947C168.086 37.361 167.972 37.805 167.972 38.279V40.655L167.603 40.241C167.975 39.755 168.437 39.371 168.989 39.089C169.541 38.807 170.132 38.666 170.762 38.666C171.566 38.666 172.283 38.855 172.913 39.233C173.549 39.605 174.047 40.112 174.407 40.754C174.773 41.396 174.956 42.119 174.956 42.923C174.956 43.733 174.752 44.468 174.344 45.128C173.942 45.782 173.402 46.304 172.724 46.694C172.052 47.078 171.314 47.27 170.51 47.27ZM170.51 45.461C170.978 45.461 171.404 45.347 171.788 45.119C172.172 44.891 172.478 44.585 172.706 44.201C172.934 43.817 173.048 43.391 173.048 42.923C173.048 42.455 172.934 42.029 172.706 41.645C172.484 41.261 172.181 40.955 171.797 40.727C171.413 40.499 170.987 40.385 170.519 40.385C170.051 40.385 169.622 40.499 169.232 40.727C168.848 40.955 168.542 41.261 168.314 41.645C168.086 42.029 167.972 42.455 167.972 42.923C167.972 43.385 168.086 43.808 168.314 44.192C168.542 44.576 168.848 44.885 169.232 45.119C169.616 45.347 170.042 45.461 170.51 45.461ZM182.725 47V44.741H176.875V42.959L181.087 34.04H183.238L179.026 42.959H182.725V39.449H184.633V42.959H185.92V44.741H184.633V47H182.725ZM190.339 47V36.11L187.9 37.595V35.498L190.339 34.04H192.256V47H190.339Z" fill="#1E1B1B"/>
<path opacity="0.7" d="M59.784 18.24C58.9947 18.24 58.2747 18.1013 57.624 17.824C56.9733 17.5467 56.4133 17.1493 55.944 16.632C55.4747 16.1093 55.112 15.48 54.856 14.744C54.6053 14.0027 54.48 13.168 54.48 12.24C54.48 11.0133 54.6987 9.952 55.136 9.056C55.5733 8.16 56.1893 7.46933 56.984 6.984C57.7787 6.49333 58.712 6.248 59.784 6.248C61.0747 6.248 62.1147 6.54933 62.904 7.152C63.6933 7.74933 64.2373 8.568 64.536 9.608L63.096 9.904C62.856 9.20533 62.4613 8.648 61.912 8.232C61.3627 7.816 60.6773 7.608 59.856 7.608C58.9973 7.60267 58.2827 7.79467 57.712 8.184C57.1467 8.568 56.72 9.10933 56.432 9.808C56.144 10.5067 55.9973 11.3173 55.992 12.24C55.9867 13.1573 56.128 13.9627 56.416 14.656C56.704 15.3493 57.1333 15.8933 57.704 16.288C58.28 16.6773 58.9973 16.8747 59.856 16.88C60.5973 16.8853 61.2213 16.744 61.728 16.456C62.2347 16.168 62.6267 15.752 62.904 15.208C63.1813 14.664 63.3493 14.0107 63.408 13.248H60.96V12.072H64.912C64.928 12.1787 64.936 12.3067 64.936 12.456C64.9413 12.6 64.944 12.6987 64.944 12.752C64.944 13.8027 64.7467 14.744 64.352 15.576C63.9627 16.4027 63.384 17.0533 62.616 17.528C61.8533 18.0027 60.9093 18.24 59.784 18.24ZM68.9979 18.24C68.3525 18.24 67.8112 18.1227 67.3739 17.888C66.9419 17.648 66.6139 17.3333 66.3899 16.944C66.1712 16.5547 66.0619 16.128 66.0619 15.664C66.0619 15.2107 66.1472 14.8187 66.3179 14.488C66.4939 14.152 66.7392 13.8747 67.0539 13.656C67.3685 13.432 67.7445 13.256 68.1819 13.128C68.5925 13.016 69.0512 12.92 69.5579 12.84C70.0699 12.7547 70.5872 12.6773 71.1099 12.608C71.6325 12.5387 72.1205 12.472 72.5739 12.408L72.0619 12.704C72.0779 11.936 71.9232 11.368 71.5979 11C71.2779 10.632 70.7232 10.448 69.9339 10.448C69.4112 10.448 68.9525 10.568 68.5579 10.808C68.1685 11.0427 67.8939 11.4267 67.7339 11.96L66.3819 11.552C66.5899 10.7947 66.9925 10.2 67.5899 9.768C68.1872 9.336 68.9739 9.12 69.9499 9.12C70.7339 9.12 71.4059 9.26133 71.9659 9.544C72.5312 9.82133 72.9365 10.2427 73.1819 10.808C73.3045 11.0747 73.3819 11.3653 73.4139 11.68C73.4459 11.9893 73.4619 12.3147 73.4619 12.656V18H72.1979V15.928L72.4939 16.12C72.1685 16.8187 71.7125 17.3467 71.1259 17.704C70.5445 18.0613 69.8352 18.24 68.9979 18.24ZM69.2139 17.048C69.7259 17.048 70.1685 16.9573 70.5419 16.776C70.9205 16.5893 71.2245 16.3467 71.4539 16.048C71.6832 15.744 71.8325 15.4133 71.9019 15.056C71.9819 14.7893 72.0245 14.4933 72.0299 14.168C72.0405 13.8373 72.0459 13.584 72.0459 13.408L72.5419 13.624C72.0779 13.688 71.6219 13.7493 71.1739 13.808C70.7259 13.8667 70.3019 13.9307 69.9019 14C69.5019 14.064 69.1419 14.1413 68.8219 14.232C68.5872 14.3067 68.3659 14.4027 68.1579 14.52C67.9552 14.6373 67.7899 14.7893 67.6619 14.976C67.5392 15.1573 67.4779 15.384 67.4779 15.656C67.4779 15.8907 67.5365 16.1147 67.6539 16.328C67.7765 16.5413 67.9632 16.7147 68.2139 16.848C68.4699 16.9813 68.8032 17.048 69.2139 17.048ZM85.8699 18L85.8779 12.472C85.8779 11.8267 85.7045 11.3227 85.3579 10.96C85.0165 10.592 84.5712 10.408 84.0219 10.408C83.7019 10.408 83.3979 10.4827 83.1099 10.632C82.8219 10.776 82.5872 11.0053 82.4059 11.32C82.2245 11.6293 82.1339 12.0267 82.1339 12.512L81.3819 12.208C81.3712 11.5947 81.4965 11.0587 81.7579 10.6C82.0245 10.136 82.3872 9.776 82.8459 9.52C83.3045 9.264 83.8219 9.136 84.3979 9.136C85.2992 9.136 86.0085 9.41067 86.5259 9.96C87.0432 10.504 87.3019 11.2373 87.3019 12.16L87.2939 18H85.8699ZM75.5339 18V9.36H76.8059V11.672H76.9659V18H75.5339ZM80.7099 18L80.7179 12.528C80.7179 11.8667 80.5472 11.3493 80.2059 10.976C79.8645 10.5973 79.4112 10.408 78.8459 10.408C78.2859 10.408 77.8325 10.6 77.4859 10.984C77.1392 11.368 76.9659 11.8773 76.9659 12.512L76.2139 12.064C76.2139 11.504 76.3472 11.0027 76.6139 10.56C76.8805 10.1173 77.2432 9.77067 77.7019 9.52C78.1605 9.264 78.6805 9.136 79.2619 9.136C79.8432 9.136 80.3499 9.25867 80.7819 9.504C81.2139 9.74933 81.5472 10.1013 81.7819 10.56C82.0165 11.0133 82.1339 11.5547 82.1339 12.184L82.1259 18H80.7099ZM93.0515 18.24C92.2035 18.24 91.4622 18.0533 90.8275 17.68C90.1982 17.3013 89.7075 16.776 89.3555 16.104C89.0035 15.4267 88.8275 14.6373 88.8275 13.736C88.8275 12.792 89.0008 11.976 89.3475 11.288C89.6942 10.5947 90.1768 10.0613 90.7955 9.688C91.4195 9.30933 92.1502 9.12 92.9875 9.12C93.8568 9.12 94.5955 9.32 95.2035 9.72C95.8168 10.12 96.2755 10.6907 96.5795 11.432C96.8888 12.1733 97.0222 13.056 96.9795 14.08H95.5395V13.568C95.5235 12.5067 95.3075 11.7147 94.8915 11.192C94.4755 10.664 93.8568 10.4 93.0355 10.4C92.1555 10.4 91.4862 10.6827 91.0275 11.248C90.5688 11.8133 90.3395 12.624 90.3395 13.68C90.3395 14.6987 90.5688 15.488 91.0275 16.048C91.4862 16.608 92.1395 16.888 92.9875 16.888C93.5582 16.888 94.0542 16.7573 94.4755 16.496C94.8968 16.2347 95.2275 15.8587 95.4675 15.368L96.8355 15.84C96.4995 16.6027 95.9928 17.1947 95.3155 17.616C94.6435 18.032 93.8888 18.24 93.0515 18.24ZM89.8595 14.08V12.936H96.2435V14.08H89.8595ZM104.42 18.24C103.774 18.24 103.233 18.1227 102.796 17.888C102.364 17.648 102.036 17.3333 101.812 16.944C101.593 16.5547 101.484 16.128 101.484 15.664C101.484 15.2107 101.569 14.8187 101.74 14.488C101.916 14.152 102.161 13.8747 102.476 13.656C102.79 13.432 103.166 13.256 103.604 13.128C104.014 13.016 104.473 12.92 104.98 12.84C105.492 12.7547 106.009 12.6773 106.532 12.608C107.054 12.5387 107.542 12.472 107.996 12.408L107.484 12.704C107.5 11.936 107.345 11.368 107.02 11C106.7 10.632 106.145 10.448 105.356 10.448C104.833 10.448 104.374 10.568 103.98 10.808C103.59 11.0427 103.316 11.4267 103.156 11.96L101.804 11.552C102.012 10.7947 102.414 10.2 103.012 9.768C103.609 9.336 104.396 9.12 105.372 9.12C106.156 9.12 106.828 9.26133 107.388 9.544C107.953 9.82133 108.358 10.2427 108.604 10.808C108.726 11.0747 108.804 11.3653 108.836 11.68C108.868 11.9893 108.884 12.3147 108.884 12.656V18H107.62V15.928L107.916 16.12C107.59 16.8187 107.134 17.3467 106.548 17.704C105.966 18.0613 105.257 18.24 104.42 18.24ZM104.636 17.048C105.148 17.048 105.59 16.9573 105.964 16.776C106.342 16.5893 106.646 16.3467 106.876 16.048C107.105 15.744 107.254 15.4133 107.324 15.056C107.404 14.7893 107.446 14.4933 107.452 14.168C107.462 13.8373 107.468 13.584 107.468 13.408L107.964 13.624C107.5 13.688 107.044 13.7493 106.596 13.808C106.148 13.8667 105.724 13.9307 105.324 14C104.924 14.064 104.564 14.1413 104.244 14.232C104.009 14.3067 103.788 14.4027 103.58 14.52C103.377 14.6373 103.212 14.7893 103.084 14.976C102.961 15.1573 102.9 15.384 102.9 15.656C102.9 15.8907 102.958 16.1147 103.076 16.328C103.198 16.5413 103.385 16.7147 103.636 16.848C103.892 16.9813 104.225 17.048 104.636 17.048ZM114.228 18.232C113.198 18.232 112.353 18.008 111.692 17.56C111.036 17.1067 110.633 16.4747 110.484 15.664L111.94 15.432C112.057 15.9013 112.326 16.2747 112.748 16.552C113.169 16.824 113.692 16.96 114.316 16.96C114.908 16.96 115.372 16.8373 115.708 16.592C116.044 16.3467 116.212 16.0133 116.212 15.592C116.212 15.3467 116.156 15.1493 116.044 15C115.932 14.8453 115.7 14.7013 115.348 14.568C115.001 14.4347 114.476 14.2747 113.772 14.088C113.009 13.8853 112.409 13.6747 111.972 13.456C111.534 13.2373 111.222 12.984 111.036 12.696C110.849 12.408 110.756 12.0587 110.756 11.648C110.756 11.1413 110.894 10.6987 111.172 10.32C111.449 9.936 111.836 9.64 112.332 9.432C112.833 9.224 113.414 9.12 114.076 9.12C114.732 9.12 115.318 9.224 115.836 9.432C116.353 9.64 116.769 9.936 117.084 10.32C117.404 10.6987 117.593 11.1413 117.652 11.648L116.196 11.912C116.126 11.448 115.902 11.0827 115.524 10.816C115.15 10.5493 114.668 10.408 114.076 10.392C113.516 10.3707 113.06 10.4693 112.708 10.688C112.361 10.9067 112.188 11.2027 112.188 11.576C112.188 11.784 112.252 11.9627 112.38 12.112C112.513 12.2613 112.756 12.4027 113.108 12.536C113.465 12.6693 113.982 12.8213 114.66 12.992C115.422 13.184 116.022 13.3947 116.46 13.624C116.902 13.848 117.217 14.1147 117.404 14.424C117.59 14.728 117.684 15.104 117.684 15.552C117.684 16.384 117.377 17.04 116.764 17.52C116.15 17.9947 115.305 18.232 114.228 18.232ZM122.712 18.232C121.683 18.232 120.837 18.008 120.176 17.56C119.52 17.1067 119.117 16.4747 118.968 15.664L120.424 15.432C120.541 15.9013 120.811 16.2747 121.232 16.552C121.653 16.824 122.176 16.96 122.8 16.96C123.392 16.96 123.856 16.8373 124.192 16.592C124.528 16.3467 124.696 16.0133 124.696 15.592C124.696 15.3467 124.64 15.1493 124.528 15C124.416 14.8453 124.184 14.7013 123.832 14.568C123.485 14.4347 122.96 14.2747 122.256 14.088C121.493 13.8853 120.893 13.6747 120.456 13.456C120.019 13.2373 119.707 12.984 119.52 12.696C119.333 12.408 119.24 12.0587 119.24 11.648C119.24 11.1413 119.379 10.6987 119.656 10.32C119.933 9.936 120.32 9.64 120.816 9.432C121.317 9.224 121.899 9.12 122.56 9.12C123.216 9.12 123.803 9.224 124.32 9.432C124.837 9.64 125.253 9.936 125.568 10.32C125.888 10.6987 126.077 11.1413 126.136 11.648L124.68 11.912C124.611 11.448 124.387 11.0827 124.008 10.816C123.635 10.5493 123.152 10.408 122.56 10.392C122 10.3707 121.544 10.4693 121.192 10.688C120.845 10.9067 120.672 11.2027 120.672 11.576C120.672 11.784 120.736 11.9627 120.864 12.112C120.997 12.2613 121.24 12.4027 121.592 12.536C121.949 12.6693 122.467 12.8213 123.144 12.992C123.907 13.184 124.507 13.3947 124.944 13.624C125.387 13.848 125.701 14.1147 125.888 14.424C126.075 14.728 126.168 15.104 126.168 15.552C126.168 16.384 125.861 17.04 125.248 17.52C124.635 17.9947 123.789 18.232 122.712 18.232ZM128.093 7.832V6.36H129.517V7.832H128.093ZM128.093 18V9.36H129.517V18H128.093ZM135.181 18.232C134.152 18.232 133.306 18.008 132.645 17.56C131.989 17.1067 131.586 16.4747 131.437 15.664L132.893 15.432C133.01 15.9013 133.28 16.2747 133.701 16.552C134.122 16.824 134.645 16.96 135.269 16.96C135.861 16.96 136.325 16.8373 136.661 16.592C136.997 16.3467 137.165 16.0133 137.165 15.592C137.165 15.3467 137.109 15.1493 136.997 15C136.885 14.8453 136.653 14.7013 136.301 14.568C135.954 14.4347 135.429 14.2747 134.725 14.088C133.962 13.8853 133.362 13.6747 132.925 13.456C132.488 13.2373 132.176 12.984 131.989 12.696C131.802 12.408 131.709 12.0587 131.709 11.648C131.709 11.1413 131.848 10.6987 132.125 10.32C132.402 9.936 132.789 9.64 133.285 9.432C133.786 9.224 134.368 9.12 135.029 9.12C135.685 9.12 136.272 9.224 136.789 9.432C137.306 9.64 137.722 9.936 138.037 10.32C138.357 10.6987 138.546 11.1413 138.605 11.648L137.149 11.912C137.08 11.448 136.856 11.0827 136.477 10.816C136.104 10.5493 135.621 10.408 135.029 10.392C134.469 10.3707 134.013 10.4693 133.661 10.688C133.314 10.9067 133.141 11.2027 133.141 11.576C133.141 11.784 133.205 11.9627 133.333 12.112C133.466 12.2613 133.709 12.4027 134.061 12.536C134.418 12.6693 134.936 12.8213 135.613 12.992C136.376 13.184 136.976 13.3947 137.413 13.624C137.856 13.848 138.17 14.1147 138.357 14.424C138.544 14.728 138.637 15.104 138.637 15.552C138.637 16.384 138.33 17.04 137.717 17.52C137.104 17.9947 136.258 18.232 135.181 18.232ZM145.225 18C144.713 18.1013 144.207 18.1413 143.705 18.12C143.209 18.104 142.767 18.0053 142.377 17.824C141.988 17.6373 141.692 17.3493 141.489 16.96C141.319 16.6187 141.225 16.2747 141.209 15.928C141.199 15.576 141.193 15.1787 141.193 14.736V6.96H142.617V14.672C142.617 15.024 142.62 15.3253 142.625 15.576C142.636 15.8267 142.692 16.0427 142.793 16.224C142.985 16.5653 143.289 16.7653 143.705 16.824C144.127 16.8827 144.633 16.8667 145.225 16.776V18ZM139.441 10.536V9.36H145.225V10.536H139.441ZM149.435 18.24C148.79 18.24 148.249 18.1227 147.811 17.888C147.379 17.648 147.051 17.3333 146.827 16.944C146.609 16.5547 146.499 16.128 146.499 15.664C146.499 15.2107 146.585 14.8187 146.755 14.488C146.931 14.152 147.177 13.8747 147.491 13.656C147.806 13.432 148.182 13.256 148.619 13.128C149.03 13.016 149.489 12.92 149.995 12.84C150.507 12.7547 151.025 12.6773 151.547 12.608C152.07 12.5387 152.558 12.472 153.011 12.408L152.499 12.704C152.515 11.936 152.361 11.368 152.035 11C151.715 10.632 151.161 10.448 150.371 10.448C149.849 10.448 149.39 10.568 148.995 10.808C148.606 11.0427 148.331 11.4267 148.171 11.96L146.819 11.552C147.027 10.7947 147.43 10.2 148.027 9.768C148.625 9.336 149.411 9.12 150.387 9.12C151.171 9.12 151.843 9.26133 152.403 9.544C152.969 9.82133 153.374 10.2427 153.619 10.808C153.742 11.0747 153.819 11.3653 153.851 11.68C153.883 11.9893 153.899 12.3147 153.899 12.656V18H152.635V15.928L152.931 16.12C152.606 16.8187 152.15 17.3467 151.563 17.704C150.982 18.0613 150.273 18.24 149.435 18.24ZM149.651 17.048C150.163 17.048 150.606 16.9573 150.979 16.776C151.358 16.5893 151.662 16.3467 151.891 16.048C152.121 15.744 152.27 15.4133 152.339 15.056C152.419 14.7893 152.462 14.4933 152.467 14.168C152.478 13.8373 152.483 13.584 152.483 13.408L152.979 13.624C152.515 13.688 152.059 13.7493 151.611 13.808C151.163 13.8667 150.739 13.9307 150.339 14C149.939 14.064 149.579 14.1413 149.259 14.232C149.025 14.3067 148.803 14.4027 148.595 14.52C148.393 14.6373 148.227 14.7893 148.099 14.976C147.977 15.1573 147.915 15.384 147.915 15.656C147.915 15.8907 147.974 16.1147 148.091 16.328C148.214 16.5413 148.401 16.7147 148.651 16.848C148.907 16.9813 149.241 17.048 149.651 17.048ZM162.131 18V13.672C162.131 13.2613 162.094 12.8667 162.019 12.488C161.95 12.1093 161.825 11.7707 161.643 11.472C161.467 11.168 161.227 10.928 160.923 10.752C160.625 10.576 160.246 10.488 159.787 10.488C159.43 10.488 159.105 10.5493 158.811 10.672C158.523 10.7893 158.275 10.9707 158.067 11.216C157.859 11.4613 157.697 11.7707 157.579 12.144C157.467 12.512 157.411 12.9467 157.411 13.448L156.475 13.16C156.475 12.3227 156.625 11.6053 156.923 11.008C157.227 10.4053 157.651 9.944 158.195 9.624C158.745 9.29867 159.39 9.136 160.131 9.136C160.691 9.136 161.169 9.224 161.563 9.4C161.958 9.576 162.286 9.81067 162.547 10.104C162.809 10.392 163.014 10.7173 163.163 11.08C163.313 11.4373 163.417 11.8027 163.475 12.176C163.539 12.544 163.571 12.8933 163.571 13.224V18H162.131ZM155.971 18V9.36H157.251V11.672H157.411V18H155.971ZM169.213 18.24C168.338 18.24 167.594 18.0453 166.981 17.656C166.373 17.2613 165.909 16.72 165.589 16.032C165.269 15.344 165.104 14.56 165.093 13.68C165.104 12.7787 165.272 11.9867 165.597 11.304C165.928 10.616 166.4 10.08 167.013 9.696C167.626 9.312 168.365 9.12 169.229 9.12C170.141 9.12 170.925 9.344 171.581 9.792C172.242 10.24 172.685 10.8533 172.909 11.632L171.501 12.056C171.32 11.5547 171.024 11.1653 170.613 10.888C170.208 10.6107 169.741 10.472 169.213 10.472C168.621 10.472 168.133 10.6107 167.749 10.888C167.365 11.16 167.08 11.5387 166.893 12.024C166.706 12.504 166.61 13.056 166.605 13.68C166.616 14.64 166.837 15.416 167.269 16.008C167.706 16.5947 168.354 16.888 169.213 16.888C169.778 16.888 170.248 16.76 170.621 16.504C170.994 16.2427 171.277 15.8667 171.469 15.376L172.909 15.752C172.61 16.5573 172.144 17.1733 171.509 17.6C170.874 18.0267 170.109 18.24 169.213 18.24ZM178.052 18.24C177.204 18.24 176.462 18.0533 175.828 17.68C175.198 17.3013 174.708 16.776 174.356 16.104C174.004 15.4267 173.828 14.6373 173.828 13.736C173.828 12.792 174.001 11.976 174.348 11.288C174.694 10.5947 175.177 10.0613 175.796 9.688C176.42 9.30933 177.15 9.12 177.988 9.12C178.857 9.12 179.596 9.32 180.204 9.72C180.817 10.12 181.276 10.6907 181.58 11.432C181.889 12.1733 182.022 13.056 181.98 14.08H180.54V13.568C180.524 12.5067 180.308 11.7147 179.892 11.192C179.476 10.664 178.857 10.4 178.036 10.4C177.156 10.4 176.486 10.6827 176.028 11.248C175.569 11.8133 175.34 12.624 175.34 13.68C175.34 14.6987 175.569 15.488 176.028 16.048C176.486 16.608 177.14 16.888 177.988 16.888C178.558 16.888 179.054 16.7573 179.476 16.496C179.897 16.2347 180.228 15.8587 180.468 15.368L181.836 15.84C181.5 16.6027 180.993 17.1947 180.316 17.616C179.644 18.032 178.889 18.24 178.052 18.24ZM174.86 14.08V12.936H181.244V14.08H174.86Z" fill="#1E1B1B"/>
<circle cx="20" cy="28" r="20" fill="#61C4A1"/>
<path d="M27.76 31.9203C26.4636 30.8869 25.148 30.261 23.8675 31.2928L23.1029 31.9164C22.5435 32.3691 21.5034 34.4842 17.482 30.1728C13.4615 25.8668 15.854 25.1963 16.4143 24.7475L17.1831 24.1231C18.4568 23.089 17.9761 21.7871 17.0574 20.447L16.5031 19.6353C15.5802 18.2983 14.5753 17.4202 13.2982 18.4528L12.6081 19.0148C12.0437 19.398 10.4659 20.6437 10.0832 23.0101C9.62262 25.8496 11.0756 29.1011 14.4044 32.6688C17.7291 36.238 20.9842 38.0308 24.0677 37.9996C26.6303 37.9738 28.1779 36.6923 28.6619 36.2263L29.3545 35.6636C30.6282 34.6317 29.8368 33.5812 28.5396 32.5455L27.76 31.9203Z" fill="#635656"/>
</svg>
