<svg width="200" height="70" viewBox="0 0 161 36" fill="none" xmlns="http://www.w3.org/2000/svg">
<path d="M21.875 15.9814V33.1445C21.1263 33.7956 20.1253 34.3408 18.8721 34.7803C17.6188 35.2197 16.097 35.4395 14.3066 35.4395C12.5163 35.4395 10.9945 35.0407 9.74121 34.2432C8.3252 33.3805 7.61719 32.1598 7.61719 30.5811V14.8584H1.92871C0.756836 13.182 0.170898 11.3509 0.170898 9.36523C0.170898 8.01432 0.382487 6.84245 0.805664 5.84961C1.24512 4.84049 1.78223 4.05924 2.41699 3.50586H27.6611C28.1331 4.23828 28.5238 5.12533 28.833 6.16699C29.1423 7.20866 29.2969 8.24219 29.2969 9.26758C29.2969 11.1882 28.8737 12.6042 28.0273 13.5156C27.181 14.4108 26.0417 14.8584 24.6094 14.8584H17.4561C17.4072 14.9723 17.3828 15.0944 17.3828 15.2246C17.3828 15.5176 17.5537 15.7129 17.8955 15.8105C18.2536 15.9245 19.0186 15.9814 20.1904 15.9814H21.875ZM53.4912 22.915C53.4912 24.0869 53.6214 25.0309 53.8818 25.7471C54.1423 26.4632 54.598 27.0247 55.249 27.4316C55.2653 27.513 55.2734 27.6676 55.2734 27.8955V28.335C55.2734 30.6462 54.5736 32.4447 53.1738 33.7305C51.9368 34.8698 50.4069 35.4395 48.584 35.4395C47.347 35.4395 46.2158 35.1465 45.1904 34.5605C44.165 33.9746 43.4326 33.1283 42.9932 32.0215C42.4398 32.0215 42.1631 32.29 42.1631 32.8271C42.1631 33.2829 42.4479 33.7956 43.0176 34.3652C41.9596 35.0814 40.3646 35.4395 38.2324 35.4395C35.2214 35.4395 32.8125 34.6257 31.0059 32.998C29.2155 31.3542 28.3203 29.0674 28.3203 26.1377C28.3203 23.1917 29.2725 20.9131 31.1768 19.3018C32.9183 17.8532 35.1725 17.1289 37.9395 17.1289C38.8835 17.1289 39.7949 17.194 40.6738 17.3242C41.2598 17.4382 41.5771 17.5033 41.626 17.5195C41.6748 17.3568 41.6992 17.2184 41.6992 17.1045C41.6992 16.6813 41.3411 16.3965 40.625 16.25C39.9089 16.1035 38.973 16.0303 37.8174 16.0303C35.3597 16.0303 33.2601 16.5267 31.5186 17.5195C30.721 16.1686 30.3223 14.4596 30.3223 12.3926C30.3223 11.2207 30.4688 10.3499 30.7617 9.78027C31.9336 9.24316 33.4229 8.77116 35.2295 8.36426C37.0361 7.94108 38.9404 7.72949 40.9424 7.72949C45.0765 7.72949 48.2015 8.63281 50.3174 10.4395C52.4333 12.2461 53.4912 14.8096 53.4912 18.1299V22.915ZM40.8203 24.1113C40.1367 24.1113 39.7949 24.4206 39.7949 25.0391C39.7949 25.625 40.1937 25.918 40.9912 25.918C41.5446 25.918 41.9515 25.7878 42.2119 25.5273C42.4723 25.2507 42.6025 24.7786 42.6025 24.1113C42.6025 24.1113 42.0085 24.1113 40.8203 24.1113ZM68.1641 25.0146C68.3268 25.1774 68.5221 25.2588 68.75 25.2588C69.1081 25.2588 69.3522 25.0065 69.4824 24.502C69.6126 23.9811 69.6777 22.9395 69.6777 21.377V18.8867C69.6777 18.4473 69.6208 18.138 69.5068 17.959C69.3929 17.7799 69.2057 17.6904 68.9453 17.6904C68.6849 17.6904 68.4977 17.7474 68.3838 17.8613V21.1328C68.3838 22.1094 68.3105 23.4033 68.1641 25.0146ZM69.1406 5.01953V7.19238C67.7734 7.27376 66.5202 7.48535 65.3809 7.82715C64.2415 8.15267 63.6719 8.53516 63.6719 8.97461C63.6719 9.23503 63.8021 9.44661 64.0625 9.60938C65.8529 8.73047 67.749 8.29102 69.751 8.29102C73.3317 8.29102 76.2614 9.52799 78.54 12.002C80.835 14.4596 81.9824 17.666 81.9824 21.6211C81.9824 26.4062 80.599 30.0114 77.832 32.4365C75.3092 34.6501 71.875 35.7568 67.5293 35.7568C63.1999 35.7568 60.0098 34.9186 57.959 33.2422C56.8359 32.3145 56.2744 31.11 56.2744 29.6289V1.77246C57.0557 1.31673 57.9915 0.942383 59.082 0.649414C60.1888 0.356445 61.3037 0.209961 62.4268 0.209961C64.2985 0.209961 65.8447 0.576172 67.0654 1.30859C68.4489 2.17122 69.1406 3.4082 69.1406 5.01953ZM95.2637 25.0146C95.4264 25.1774 95.6217 25.2588 95.8496 25.2588C96.2077 25.2588 96.4518 25.0065 96.582 24.502C96.7122 23.9811 96.7773 22.9395 96.7773 21.377V18.8867C96.7773 18.4473 96.7204 18.138 96.6064 17.959C96.4925 17.7799 96.3053 17.6904 96.0449 17.6904C95.7845 17.6904 95.5973 17.7474 95.4834 17.8613V21.1328C95.4834 22.1094 95.4102 23.4033 95.2637 25.0146ZM96.2402 5.01953V7.19238C94.873 7.27376 93.6198 7.48535 92.4805 7.82715C91.3411 8.15267 90.7715 8.53516 90.7715 8.97461C90.7715 9.23503 90.9017 9.44661 91.1621 9.60938C92.9525 8.73047 94.8486 8.29102 96.8506 8.29102C100.431 8.29102 103.361 9.52799 105.64 12.002C107.935 14.4596 109.082 17.666 109.082 21.6211C109.082 26.4062 107.699 30.0114 104.932 32.4365C102.409 34.6501 98.9746 35.7568 94.6289 35.7568C90.2995 35.7568 87.1094 34.9186 85.0586 33.2422C83.9355 32.3145 83.374 31.11 83.374 29.6289V1.77246C84.1553 1.31673 85.0911 0.942383 86.1816 0.649414C87.2884 0.356445 88.4033 0.209961 89.5264 0.209961C91.3981 0.209961 92.9443 0.576172 94.165 1.30859C95.5485 2.17122 96.2402 3.4082 96.2402 5.01953ZM124.731 35.7568C120.223 35.7568 116.667 34.5036 114.062 31.9971C111.393 29.4743 110.059 26.0238 110.059 21.6455C110.059 17.251 111.434 13.7679 114.185 11.1963C116.724 8.80371 119.938 7.60742 123.828 7.60742C127.718 7.60742 130.835 8.68164 133.179 10.8301C135.539 12.9622 136.719 15.5908 136.719 18.7158C136.719 21.499 135.75 23.5986 133.813 25.0146C132.023 26.3493 129.582 27.0166 126.489 27.0166C124.178 27.0166 122.225 26.5365 120.63 25.5762C120.5 25.6738 120.435 25.8529 120.435 26.1133C120.435 26.6016 121.077 27.0492 122.363 27.4561C123.649 27.8955 125.106 28.1152 126.733 28.1152C128.377 28.1152 129.867 27.9118 131.201 27.5049C132.552 27.0817 133.634 26.5853 134.448 26.0156C134.839 26.3574 135.148 26.9922 135.376 27.9199C135.62 28.8314 135.742 29.6696 135.742 30.4346C135.742 31.1833 135.669 31.8506 135.522 32.4365C134.253 33.5107 132.951 34.2757 131.616 34.7314C129.728 35.415 127.433 35.7568 124.731 35.7568ZM124.414 19.2285C125.228 19.2285 125.635 18.9193 125.635 18.3008C125.635 17.7148 125.203 17.4219 124.341 17.4219C123.478 17.4219 122.982 17.8857 122.852 18.8135C123.307 19.0902 123.828 19.2285 124.414 19.2285ZM145.142 35.3174C143.205 35.3174 141.659 34.9674 140.503 34.2676C139.217 33.5352 138.574 32.4528 138.574 31.0205V18.4473C137.614 17.0964 137.134 15.4362 137.134 13.4668C137.134 11.4811 137.614 9.764 138.574 8.31543H142.31C144.23 8.31543 145.605 8.93392 146.436 10.1709C146.029 10.6266 145.671 11.2044 145.361 11.9043C145.052 12.6042 144.897 13.1087 144.897 13.418C144.897 13.7109 144.971 13.9307 145.117 14.0771C145.28 14.2236 145.508 14.2969 145.801 14.2969C146.37 12.0345 147.453 10.3743 149.048 9.31641C150.366 8.42122 151.994 7.97363 153.931 7.97363C156.34 7.97363 158.228 8.48633 159.595 9.51172C160.083 10.8138 160.327 12.4089 160.327 14.2969C160.327 16.1686 159.953 17.8695 159.204 19.3994C158.651 19.6924 157.886 19.9447 156.909 20.1562C155.933 20.3516 154.948 20.4492 153.955 20.4492C152.962 20.4492 152.067 20.3841 151.27 20.2539C150.488 20.1074 149.919 19.9772 149.561 19.8633C149.43 19.9935 149.365 20.1807 149.365 20.4248C149.365 20.6689 149.52 20.8561 149.829 20.9863C150.155 21.1003 150.692 21.2305 151.44 21.377V33.6328C149.666 34.7559 147.567 35.3174 145.142 35.3174Z" fill="black"/>
</svg>
